<?xml version="1.0" encoding="UTF-8" standalone="no"?>
<!-- Created with Inkscape (http://www.inkscape.org/) -->
<svg
   xmlns:dc="http://purl.org/dc/elements/1.1/"
   xmlns:cc="http://creativecommons.org/ns#"
   xmlns:rdf="http://www.w3.org/1999/02/22-rdf-syntax-ns#"
   xmlns:svg="http://www.w3.org/2000/svg"
   xmlns="http://www.w3.org/2000/svg"
   xmlns:sodipodi="http://sodipodi.sourceforge.net/DTD/sodipodi-0.dtd"
   xmlns:inkscape="http://www.inkscape.org/namespaces/inkscape"
   width="744" height="787" viewBox="12 82 744 787"
   sodipodi:version="0.32"
   inkscape:version="0.46"
   sodipodi:docname="intermediateframes.svg"
   inkscape:output_extension="org.inkscape.output.svg.inkscape">
  <metadata>
    <rdf:RDF>
      <cc:Work rdf:about="">
        <dc:format>image/svg+xml</dc:format>
        <dc:type rdf:resource="http://purl.org/dc/dcmitype/StillImage" />
      </cc:Work>
    </rdf:RDF>
  </metadata>
  <g
     inkscape:label="Capa 1"
     inkscape:groupmode="layer"
     id="layer1">
    <path
       d="M 693.0934,572.93461 C 693.0934,677.19787 546.45652,761.72007 365.57074,761.72007 C 184.68496,761.72007 38.048046,677.19787 38.048046,572.93461 C 38.048046,468.67135 184.68496,384.14926 365.57073,384.14926 C 546.45652,384.14926 693.0934,468.67135 693.0934,572.93461 L 693.0934,572.93461 z"
       style="fill:none;fill-opacity:1;stroke:#008dd1;stroke-width:3.0196979;stroke-miterlimit:4;stroke-dasharray:none;stroke-dashoffset:0;stroke-opacity:1"
       id="path2648" />
    <g
       id="g2650"
       transform="translate(47.966776,89.679309)">
      <path
         d="M 642.0625,465.25 C 642.0625,465.25 553.73976,466.65626 323.5,466.65625 L 323.5,469.65625 C 553.75217,469.65626 642.09375,468.25 642.09375,468.25 L 642.0625,465.25 z"
         style="fill:#008dd1;fill-opacity:1;fill-rule:evenodd;stroke:none;stroke-width:3;stroke-linecap:butt;stroke-linejoin:miter;stroke-miterlimit:4;stroke-dasharray:none;stroke-opacity:1"
         id="path2652" />
      <path
         d="M 612.07665,467.22142 L 600.27228,479.41392 L 642.07273,466.73627 L 599.88416,455.41706 L 612.07665,467.22142 z"
         style="fill:#008dd1;fill-rule:evenodd;stroke:#008dd1;stroke-width:2.4pt;marker-start:none"
         id="path2654" />
    </g>
    <g
       id="g2658"
       transform="matrix(1,0,0,0.9933922,47.966776,94.471899)">
      <path
         d="M 215.71875,292.90625 L 213.1875,294.53125 C 351.70402,509.56682 420.96462,617.08486 455.59375,670.84375 C 472.90832,697.7232 481.57761,711.18639 485.90625,717.90625 C 488.07057,721.26618 489.14642,722.94127 489.6875,723.78125 C 489.95804,724.20124 490.08861,724.395 490.15625,724.5 C 490.19007,724.5525 490.2103,724.58063 490.21875,724.59375 C 490.22298,724.60031 490.21769,724.62336 490.21875,724.625 L 492.75,723 C 492.75,723 492.7518,722.97739 215.71875,292.90625 z"
         style="fill:#00aa4f;fill-opacity:1;fill-rule:evenodd;stroke:none;stroke-width:3;stroke-linecap:butt;stroke-linejoin:miter;stroke-miterlimit:4;stroke-dasharray:none;stroke-opacity:1"
         id="path2660" />
      <path
         d="M 475.24243,698.57848 L 458.6559,694.98867 L 491.48834,723.79892 L 478.83225,681.99194 L 475.24243,698.57848 z"
         style="fill:#00aa4f;fill-rule:evenodd;stroke:#00aa4f;stroke-width:2.4pt;marker-start:none"
         id="path2662" />
    </g>
    <text
       x="542.61249"
       y="855.52649"
       style="font-size:32px;font-style:normal;font-variant:normal;font-weight:normal;font-stretch:normal;text-align:start;line-height:100%;writing-mode:lr-tb;text-anchor:start;fill:#00aa4f;fill-opacity:1;stroke:none;stroke-width:1px;stroke-linecap:butt;stroke-linejoin:miter;stroke-opacity:1;font-family:Times New Roman"
       id="text2664"
       xml:space="preserve"
       sodipodi:linespacing="100%"><tspan
         x="542.61249"
         y="855.52649"
         style="font-size:48px;font-style:normal;font-variant:normal;font-weight:bold;font-stretch:normal;text-align:start;line-height:100%;writing-mode:lr-tb;text-anchor:start;fill:#00aa4f;fill-opacity:1;font-family:Times New Roman"
         id="tspan2666">N</tspan></text>
    <g
       id="g2668"
       transform="translate(47.966776,89.679309)">
      <path
         d="M 324.59375,465.625 C 264.48967,553.50828 234.43227,597.43543 219.40625,619.40625 C 211.89324,630.39166 208.12825,635.87865 206.25,638.625 C 205.31087,639.99818 204.85978,640.68796 204.625,641.03125 C 204.50761,641.2029 204.4356,641.30084 204.40625,641.34375 C 204.39158,641.36521 204.37867,641.36964 204.375,641.375 L 206.84375,643.0625 C 206.84375,643.0625 206.85434,643.07906 327.0625,467.3125 L 324.59375,465.625 z"
         style="fill:#008dd1;fill-opacity:1;fill-rule:evenodd;stroke:none;stroke-width:3;stroke-linecap:butt;stroke-linejoin:miter;stroke-miterlimit:4;stroke-dasharray:none;stroke-opacity:1"
         id="path2670" />
      <path
         d="M 222.55123,617.46705 L 219.42031,600.7878 L 205.61581,642.22976 L 239.23047,614.33614 L 222.55123,617.46705 z"
         style="fill:#008dd1;fill-rule:evenodd;stroke:#008dd1;stroke-width:2.4pt;marker-start:none"
         id="path2672" />
    </g>
    <text
       x="200.65915"
       y="844.09198"
       transform="scale(1.0868608,0.920081)"
       style="font-size:48px;font-style:normal;font-variant:normal;font-weight:normal;font-stretch:normal;text-align:start;line-height:100%;writing-mode:lr-tb;text-anchor:start;fill:#008dd1;fill-opacity:1;stroke:#50b1df;stroke-width:1px;stroke-linecap:butt;stroke-linejoin:miter;stroke-opacity:1;font-family:Times New Roman"
       id="text2674"
       xml:space="preserve"
       sodipodi:linespacing="100%"><tspan
         x="200.65915"
         y="844.09198"
         style="font-size:48px;font-style:normal;font-variant:normal;font-weight:normal;font-stretch:normal;text-align:start;line-height:100%;writing-mode:lr-tb;text-anchor:start;fill:#008dd1;fill-opacity:1;stroke:#50b1df;stroke-width:1;stroke-opacity:1;font-family:Times New Roman"
         id="tspan2676">x</tspan></text>
    <text
       x="652.35822"
       y="609.1424"
       transform="scale(1.0868608,0.920081)"
       style="font-size:48px;font-style:normal;font-variant:normal;font-weight:normal;font-stretch:normal;text-align:start;line-height:100%;writing-mode:lr-tb;text-anchor:start;fill:#008dd1;fill-opacity:1;stroke:#50b1df;stroke-width:1px;stroke-linecap:butt;stroke-linejoin:miter;stroke-opacity:1;font-family:Times New Roman"
       id="text2678"
       xml:space="preserve"
       sodipodi:linespacing="100%"><tspan
         x="652.35822"
         y="609.1424"
         style="font-size:48px;font-style:normal;font-variant:normal;font-weight:normal;font-stretch:normal;text-align:start;line-height:100%;writing-mode:lr-tb;text-anchor:start;fill:#008dd1;fill-opacity:1;stroke:#50b1df;stroke-width:1;stroke-opacity:1;font-family:Times New Roman"
         id="tspan2680">y</tspan></text>
    <text
       x="330.78918"
       y="130.58943"
       transform="scale(1.0868608,0.920081)"
       style="font-size:48px;font-style:normal;font-variant:normal;font-weight:normal;font-stretch:normal;text-align:start;line-height:100%;writing-mode:lr-tb;text-anchor:start;fill:#008dd1;fill-opacity:1;stroke:#50b1df;stroke-width:1px;stroke-linecap:butt;stroke-linejoin:miter;stroke-opacity:1;font-family:Times New Roman"
       id="text2682"
       xml:space="preserve"
       sodipodi:linespacing="100%"><tspan
         x="330.78918"
         y="130.58943"
         style="font-size:48px;font-style:normal;font-variant:normal;font-weight:normal;font-stretch:normal;text-align:start;line-height:100%;writing-mode:lr-tb;text-anchor:start;fill:#008dd1;fill-opacity:1;stroke:#50b1df;stroke-width:1;stroke-opacity:1;font-family:Times New Roman"
         id="tspan2684">z</tspan></text>
    <g
       id="g2686"
       transform="translate(47.966776,89.679309)">
      <path
         d="M 325.625,42.03125 L 322.1875,42.0625 C 322.1875,42.0625 323.59375,159.93442 323.59375,467.25 L 327.03125,467.25 C 327.03125,159.92397 325.625,42.03125 325.625,42.03125 z"
         style="fill:#008dd1;fill-opacity:1;fill-rule:evenodd;stroke:none;stroke-width:3.43442535;stroke-linecap:butt;stroke-linejoin:miter;stroke-miterlimit:4;stroke-dasharray:none;stroke-opacity:1"
         id="path2688" />
      <path
         d="M 324.31355,76.387334 L 338.21372,89.960621 L 323.90495,42.045511 L 310.74027,90.287504 L 324.31355,76.387334 z"
         style="fill:#008dd1;fill-rule:evenodd;stroke:#008dd1;stroke-width:2.74754028pt;marker-start:none"
         id="path2690" />
    </g>
    <text
       x="60.249809"
       y="349.26663"
       style="font-size:32px;font-style:normal;font-variant:normal;font-weight:normal;font-stretch:normal;text-align:start;line-height:100%;writing-mode:lr-tb;text-anchor:start;fill:#eb2d2e;fill-opacity:1;stroke:none;stroke-width:1px;stroke-linecap:butt;stroke-linejoin:miter;stroke-opacity:1;font-family:Times New Roman"
       id="text2692"
       xml:space="preserve"
       sodipodi:linespacing="100%"><tspan
         x="60.249809"
         y="349.26663"
         style="font-size:48px;font-style:normal;font-variant:normal;font-weight:bold;font-stretch:normal;text-align:start;line-height:100%;writing-mode:lr-tb;text-anchor:start;fill:#eb2d2e;fill-opacity:1;stroke:none;stroke-opacity:1;font-family:Times New Roman"
         id="tspan2694">Z</tspan></text>
    <g
       id="g2696"
       transform="translate(47.966776,89.679309)">
      <path
         d="M 324.4375,463.21875 L 323.90625,466.1875 C 420.8809,483.36008 469.38134,491.9256 493.625,496.21875 C 505.74683,498.36532 511.81329,499.43211 514.84375,499.96875 C 516.35898,500.23707 517.12119,500.37042 517.5,500.4375 C 517.6894,500.47104 517.76515,500.49161 517.8125,500.5 C 517.83618,500.50419 517.86908,500.5302 517.875,500.53125 L 518.40625,497.5625 C 518.40625,497.5625 518.3868,497.56391 324.4375,463.21875 z"
         style="fill:#eb2d2e;fill-opacity:1;fill-rule:evenodd;stroke:none;stroke-width:3;stroke-linecap:butt;stroke-linejoin:miter;stroke-miterlimit:4;stroke-dasharray:none;stroke-opacity:1"
         id="path2698" />
      <path
         d="M 488.59136,493.80952 L 474.68275,503.53323 L 518.13176,499.04063 L 478.86764,479.90091 L 488.59136,493.80952 z"
         style="fill:#eb2d2e;fill-rule:evenodd;stroke:#eb2d2e;stroke-width:2.4pt;marker-start:none"
         id="path2700" />
    </g>
    <text
       x="576.9577"
       y="609.04919"
       style="font-size:32px;font-style:normal;font-variant:normal;font-weight:normal;font-stretch:normal;text-align:start;line-height:100%;writing-mode:lr-tb;text-anchor:start;fill:#eb2d2e;fill-opacity:1;stroke:none;stroke-width:1px;stroke-linecap:butt;stroke-linejoin:miter;stroke-opacity:1;font-family:Times New Roman"
       id="text2702"
       xml:space="preserve"
       sodipodi:linespacing="100%"><tspan
         x="576.9577"
         y="609.04919"
         style="font-size:48px;font-style:normal;font-variant:normal;font-weight:bold;font-stretch:normal;text-align:start;line-height:100%;writing-mode:lr-tb;text-anchor:start;fill:#eb2d2e;fill-opacity:1;font-family:Times New Roman"
         id="tspan2704">X</tspan></text>
    <g
       id="g2706"
       transform="translate(47.966776,89.679309)">
      <path
         d="M 467.03125,178.28125 C 467.03125,178.28125 467.0354,178.27292 323.59375,465.15625 L 326.28125,466.5 C 398.00207,323.05834 433.85104,251.32917 451.78125,215.46875 C 460.74635,197.53854 465.22747,188.5763 467.46875,184.09375 C 468.58939,181.85247 469.15734,180.74782 469.4375,180.1875 C 469.57758,179.90734 469.65248,179.75754 469.6875,179.6875 C 469.70501,179.65248 469.71437,179.63375 469.71875,179.625 C 469.71875,179.625 467.03125,178.28125 467.03125,178.28125 z"
         style="fill:#eb2d2e;fill-opacity:1;fill-rule:evenodd;stroke:none;stroke-width:3;stroke-linecap:butt;stroke-linejoin:miter;stroke-miterlimit:4;stroke-dasharray:none;stroke-opacity:1"
         id="path2708" />
      <path
         d="M 454.96533,205.78137 L 460.3319,221.88106 L 468.38174,178.94855 L 438.86564,211.14793 L 454.96533,205.78137 z"
         style="fill:#eb2d2e;fill-rule:evenodd;stroke:#eb2d2e;stroke-width:2.4pt;marker-start:none"
         id="path2710" />
    </g>
    <g
       id="g2712"
       transform="matrix(0.95906,0,0,0.9581351,61.305536,109.18968)">
      <path
         d="M 49.03125,261.59375 L 47.28125,264 C 47.28125,264 47.280686,264.00074 324.0625,466.03125 L 325.8125,463.625 C 187.42159,362.60975 118.22273,312.09756 83.625,286.84375 C 66.326137,274.21684 57.699716,267.90673 53.375,264.75 C 51.212642,263.17164 50.134339,262.36334 49.59375,261.96875 C 49.323455,261.77145 49.192574,261.67432 49.125,261.625 C 49.091213,261.60034 49.070947,261.59992 49.0625,261.59375 C 49.058277,261.59067 49.032306,261.59452 49.03125,261.59375 z"
         style="fill:#eb2d2e;fill-opacity:1;fill-rule:evenodd;stroke:none;stroke-width:3;stroke-linecap:butt;stroke-linejoin:miter;stroke-miterlimit:4;stroke-opacity:1"
         id="path2714" />
      <path
         d="M 72.389732,280.4784 L 89.157189,277.8607 L 48.15828,262.79121 L 75.007436,297.24586 L 72.389732,280.4784 z"
         style="fill:#eb2d2e;fill-rule:evenodd;stroke:#eb2d2e;stroke-width:2.4pt;marker-start:none"
         id="path2716" />
    </g>
    <text
       x="500.1861"
       y="253.47549"
       style="font-size:32px;font-style:normal;font-variant:normal;font-weight:normal;font-stretch:normal;text-align:start;line-height:100%;writing-mode:lr-tb;text-anchor:start;fill:#eb2d2e;fill-opacity:1;stroke:none;stroke-width:1px;stroke-linecap:butt;stroke-linejoin:miter;stroke-opacity:1;font-family:Times New Roman"
       id="text2718"
       xml:space="preserve"
       sodipodi:linespacing="100%"><tspan
         x="500.1861"
         y="253.47549"
         style="font-size:48px;font-style:normal;font-variant:normal;font-weight:bold;font-stretch:normal;text-align:start;line-height:100%;writing-mode:lr-tb;text-anchor:start;fill:#eb2d2e;fill-opacity:1;font-family:Times New Roman"
         id="tspan2720">Y</tspan></text>
    <g
       id="g2722"
       transform="translate(47.966776,89.679309)">
      <path
         d="M 287.8125,525.6875 L 286.125,528.15625 C 310.28141,544.63833 341.5734,546.49673 367.5,532.96875 L 366.09375,530.3125 C 341.14333,543.33112 311.05937,541.549 287.8125,525.6875 z"
         style="fill:#000000;fill-opacity:1;stroke:none;stroke-width:3;stroke-miterlimit:4;stroke-dasharray:none;stroke-dashoffset:0;stroke-opacity:1"
         id="path2724" />
      <path
         d="M 349.52264,532.46241 L 370.30388,529.77637 L 356.2135,545.28559 C 357.02387,540.04677 354.30549,534.87606 349.52264,532.46241 z"
         style="font-size:12px;fill-rule:evenodd;stroke-width:0.625;stroke-linejoin:round"
         id="path2726" />
    </g>
    <text
       x="362.80536"
       y="659.55688"
       style="font-size:48px;font-style:normal;font-variant:normal;font-weight:normal;font-stretch:normal;text-align:start;line-height:125%;writing-mode:lr-tb;text-anchor:start;fill:#000000;fill-opacity:1;stroke:none;stroke-width:1px;stroke-linecap:butt;stroke-linejoin:miter;stroke-opacity:1;font-family:Times New Roman"
       id="text2728"
       xml:space="preserve"
       sodipodi:linespacing="125%"><tspan
         x="362.80536"
         y="659.55688"
         id="tspan2730">α</tspan></text>
    <g
       id="g2732"
       transform="translate(47.966776,89.679309)">
      <path
         d="M 323.1875,385.5 C 300.33929,386.53639 279.04005,397.39826 264.78125,415.28125 L 267.125,417.15625 C 280.84531,399.94862 301.32717,389.49725 323.3125,388.5 L 323.1875,385.5 z"
         style="fill:#000000;fill-opacity:1;stroke:none;stroke-width:3;stroke-miterlimit:4;stroke-dasharray:none;stroke-dashoffset:0;stroke-opacity:1"
         id="path2734" />
      <path
         d="M 281.41737,408.46613 L 263.50223,419.33455 L 270.10837,399.44903 C 271.48805,404.56747 276.06687,408.19518 281.41737,408.46613 z"
         style="font-size:12px;fill-rule:evenodd;stroke-width:0.625;stroke-linejoin:round"
         id="path2736" />
    </g>
    <text
       x="319.3688"
       y="446.41464"
       style="font-size:48px;font-style:normal;font-variant:normal;font-weight:normal;font-stretch:normal;text-align:start;line-height:125%;writing-mode:lr-tb;text-anchor:start;fill:#000000;fill-opacity:1;stroke:none;stroke-width:1px;stroke-linecap:butt;stroke-linejoin:miter;stroke-opacity:1;font-family:Times New Roman"
       id="text2738"
       xml:space="preserve"
       sodipodi:linespacing="125%"><tspan
         x="319.3688"
         y="446.41464"
         id="tspan2740">β</tspan></text>
    <g
       id="g2742"
       transform="translate(47.966776,89.679309)">
      <path
         d="M 443.84375,489.28125 C 437.1957,520.94947 418.01596,548.56598 390.65625,565.84375 L 392.25,568.375 C 420.29475,550.66463 439.96674,522.36739 446.78125,489.90625 L 443.84375,489.28125 z"
         style="fill:#000000;fill-opacity:1;stroke:none;stroke-width:3;stroke-miterlimit:4;stroke-dasharray:none;stroke-dashoffset:0;stroke-opacity:1"
         id="path2744" />
      <path
         d="M 434.98495,503.45349 L 446.10308,485.69224 L 449.1402,506.42508 C 445.60708,502.473 439.88627,501.29053 434.98495,503.45349 z"
         style="font-size:12px;fill-rule:evenodd;stroke-width:0.625;stroke-linejoin:round"
         id="path2746" />
    </g>
    <text
       x="478.9729"
       y="654.5061"
       style="font-size:48px;font-style:normal;font-variant:normal;font-weight:normal;font-stretch:normal;text-align:start;line-height:125%;writing-mode:lr-tb;text-anchor:start;fill:#000000;fill-opacity:1;stroke:none;stroke-width:1px;stroke-linecap:butt;stroke-linejoin:miter;stroke-opacity:1;font-family:Times New Roman"
       id="text2748"
       xml:space="preserve"
       sodipodi:linespacing="125%"><tspan
         x="478.9729"
         y="654.5061"
         id="tspan2750">γ</tspan></text>
    <path
       sodipodi:type="arc"
       style="opacity:1;fill:#00acff;fill-opacity:0;stroke:#007fb4;stroke-width:3;stroke-linecap:square;stroke-miterlimit:4;stroke-dasharray:none;stroke-opacity:1"
       id="path2794"
       sodipodi:cx="-518.15363"
       sodipodi:cy="1433.7261"
       sodipodi:rx="320.28268"
       sodipodi:ry="323.63641"
       d="M -197.87094,1433.7261 A 320.28268,323.63641 0 1 1 -838.42118,1430.5799"
       transform="matrix(-1.0237155,0,0,-1.0347284,-164.89274,2051.0395)"
       sodipodi:start="0"
       sodipodi:end="3.1513141"
       sodipodi:open="true" />
    <g
       id="g3231"
       transform="matrix(0.9534834,0,0,0.9758107,369.71326,-195.26395)">
      <path
         d="M 233.9989,536.54817 C 233.9989,536.54817 172.59614,600.05081 9.93695,762.99968 L 12.06016,765.11911 C 174.72812,602.16146 236.14419,538.64549 236.14419,538.64549 L 233.9989,536.54817 z"
         style="fill:#f0c000;fill-opacity:1;fill-rule:evenodd;stroke:#f0c000;stroke-width:3;stroke-linecap:butt;stroke-linejoin:miter;stroke-miterlimit:4;stroke-dasharray:none;stroke-opacity:1"
         id="path3233" />
      <path
         d="M 214.20982,559.16299 L 214.49937,576.13109 L 235.05802,537.59095 L 197.24174,559.45253 L 214.20982,559.16299 z"
         style="fill:#f0c000;fill-opacity:1;fill-rule:evenodd;stroke:#f0c000;stroke-width:2.4pt;marker-start:none;stroke-opacity:1"
         id="path3235" />
      <path
         d="M 231.36937,685.66551 C 231.36937,685.66551 170.85566,709.22436 12.19456,768.04887 L 12.94252,770.1674 C 171.61218,711.33974 232.13886,687.77606 232.13886,687.77606 L 231.36937,685.66551 z"
         style="fill:#f0c000;fill-opacity:1;fill-rule:evenodd;stroke:#f0c000;stroke-width:2.22553802;stroke-linecap:butt;stroke-linejoin:miter;stroke-miterlimit:4;stroke-dasharray:none;stroke-opacity:1"
         id="path3237" />
      <path
         d="M 232.46263,685.73093 L 227.36789,697.35695 L 253.01234,677.72456 L 221.11759,680.51003 L 232.46263,685.73093 z"
         style="fill:#f0c000;fill-opacity:1;fill-rule:evenodd;stroke:#f0c000;stroke-width:1.78043041pt;marker-start:none;stroke-opacity:1"
         id="path3239" />
    </g>
    <text
       xml:space="preserve"
       style="font-size:40px;font-style:normal;font-weight:normal;fill:#f0c000;fill-opacity:1;stroke:none;stroke-width:1px;stroke-linecap:butt;stroke-linejoin:miter;stroke-opacity:1;font-family:Bitstream Vera Sans"
       x="541.42859"
       y="524.92334"
       id="text3241"><tspan
         sodipodi:role="line"
         id="tspan3243"
         x="541.42859"
         y="524.92334">N x z</tspan></text>
    <text
       xml:space="preserve"
       style="font-size:40px;font-style:normal;font-weight:normal;fill:#f0c000;fill-opacity:1;stroke:none;stroke-width:1px;stroke-linecap:butt;stroke-linejoin:miter;stroke-opacity:1;font-family:Bitstream Vera Sans"
       x="620.50226"
       y="313.52554"
       id="text3245"><tspan
         sodipodi:role="line"
         id="tspan3247"
         x="620.50226"
         y="313.52554">N x Z</tspan></text>
  </g>
</svg>
